<svg fill="#000000" viewBox="0 0 212.973 212.973" xmlns="http://www.w3.org/2000/svg"><g><path d="M167.785,122.488c3.391,0,6.567-0.911,9.32-2.482l6.768,6.767l7.07-7.072l-6.766-6.765c1.572-2.754,2.483-5.931,2.483-9.322c0-10.408-8.468-18.875-18.876-18.875c-5.042,0-9.782,1.963-13.348,5.527c-3.566,3.565-5.529,8.306-5.528,13.347c-0.001,5.043,1.963,9.783,5.528,13.349C158.003,120.525,162.743,122.488,167.785,122.488z M161.508,97.338c1.677-1.677,3.906-2.6,6.277-2.6c4.895,0,8.876,3.981,8.876,8.875c0,4.894-3.981,8.875-8.876,8.875c-2.371,0-4.601-0.923-6.277-2.6c-1.676-1.676-2.599-3.904-2.599-6.276C158.909,101.242,159.832,99.014,161.508,97.338z"/><path d="M0,65.701v81.57h212.973v-81.57H0z M197.973,132.271H15v-51.57h182.973V132.271z"/><rect x="25.5" y="89.738" width="10" height="33.498"/></g></svg>
